<?xml version="1.0" encoding="utf-8"?>
<!-- Generator: Adobe Illustrator 25.4.1, SVG Export Plug-In . SVG Version: 6.00 Build 0)  -->
<svg version="1.1" id="Layer_1" xmlns="http://www.w3.org/2000/svg" xmlns:xlink="http://www.w3.org/1999/xlink" x="0px" y="0px"
	 viewBox="0 0 24 24" style="enable-background:new 0 0 24 24;" xml:space="preserve">
<style type="text/css">
	.st0{fill:#F4D5CE;}
	.st1{fill:#CBBDE0;}
</style>
<polygon class="st0" points="-2.3,37 0.9,34.5 0.9,24.9 -7.1,20.9 -10.8,22.7 -6.2,26.7 -4.1,28.5 -3.6,36 "/>
<path d="M12,0.2L1.8,6.1v11.8L12,23.8l10.2-5.9V6.1L12,0.2z M5,7.4L7.4,6l7.7,4.4v8.5l0,0l-1.8,1v-7.7L5,7.4z M4.5,10.2l6.2,3.6v6.2
	l-6.2-3.6V10.2z M17.8,17.4v-4.4l2.3-1.3V16L17.8,17.4z"/>
<polygon class="st1" points="17.8,12.9 17.8,17.4 20.1,16 20.1,11.6 "/>
<g id="XVpnF9.tif">
	
		<image style="overflow:visible;" width="668" height="222" id="Layer_0" xlink:href="A6EF35AE21066694.png"  transform="matrix(7.373336e-02 0 0 -7.373336e-02 -56.4895 22.0915)">
	</image>
</g>
<g id="ZvxVOP.tif">
	
		<image style="overflow:visible;" width="332" height="450" id="Layer_0_00000129196888437773358530000017388584063088393127_" xlink:href="A6EF35AE21066697.png"  transform="matrix(8.102228e-02 0 0 -8.102228e-02 24.886 32.725)">
	</image>
</g>
</svg>
