<svg id="Layer_1" data-name="Layer 1" xmlns="http://www.w3.org/2000/svg" viewBox="0 0 1062.51 276.25"><defs><style>.cls-1{fill:#f1f2f2;}.cls-2{fill:#bcbec0;}</style></defs><path class="cls-1" d="M30,32.31H51.58V181.56H30Z"/><path class="cls-1" d="M171.69,115.41v66.15H150.14V119.79c0-16.2-7-24.78-22.87-24.78-18.49,0-28.41,12-28.41,32.22v54.33H77.32V76.71H98.86V94.06c7.44-12.2,18.68-19.64,35.08-19.64C157.58,74.42,171.69,89.86,171.69,115.41Z"/><path class="cls-1" d="M294.08,32.19V181.56H272.54V164c-7.82,11.82-20.4,19.83-36.79,19.83-28,0-48.43-22.69-48.43-54.71s20.78-54.72,48.24-54.72c16.58,0,29.16,8.2,37,20.21V32.19Zm-21.54,96.95c0-20-13.92-34.13-32.22-34.13s-31.26,14.11-31.26,34.13c0,20.2,13.15,34.12,31.26,34.12C258.62,163.26,272.54,149.34,272.54,129.14Z"/><path class="cls-1" d="M340,45.11c0,7.82-5.91,13.53-14.11,13.53-7.82,0-13.92-5.71-13.92-13.53C312,37.48,318.1,32,325.92,32,334.12,32,340,37.48,340,45.11ZM315.25,79.23h21.54V182.09H315.25Z"/><path class="cls-1" d="M514.85,143.24c0,29.17-25.93,40.61-49.76,40.61-37.37,0-53.76-20.59-57.38-43.66h21.73c4,15.44,14.3,23.45,35.46,23.45,17.92,0,28.21-7,28.21-19.44s-10.86-14.49-35.65-20c-25.92-5.72-46.13-13-46.13-37.94,0-26.5,23.45-40.42,49-40.42,33.56,0,49,17.35,52.81,38.51H491.4c-3.81-11-13-18.3-30.89-18.3s-27.64,8-27.64,19.64c0,9.53,7.63,12.58,29.74,17.35C496.35,110.45,514.85,117.51,514.85,143.24Z"/><path class="cls-1" d="M634,129.14c0,31.45-23.83,54.71-54.33,54.71-30.31,0-54.33-23.45-54.33-54.71,0-31.65,24.4-54.72,54.33-54.72C609.79,74.42,634,97.49,634,129.14Zm-86.93,0c0,20.2,14.3,34.12,32.6,34.12s32.6-13.92,32.6-34.12S597.78,95,579.67,95,547.07,108.93,547.07,129.14Z"/><path class="cls-1" d="M678.23,76.14v.57h38.7V96.92h-38.7v84.64H656.69V96.92H637.24V76.71h19.45V75.18c0-28.59,18.3-42.7,40.8-42.7,8,0,17.16,1.72,23.64,4.57l-3.81,17.74-3.06-1A49.67,49.67,0,0,0,700,51.54C684.91,51.54,678.23,60.12,678.23,76.14Z"/><path class="cls-1" d="M936.37,76.71V181.56H914.83V164c-7.63,12-20.21,19.83-36.61,19.83-28,0-48.42-22.69-48.42-54.71S850.58,74.42,878,74.42a42.33,42.33,0,0,1,36.8,20.21V76.71ZM915,129.14C915,109.12,901.1,95,882.8,95s-31.27,14.11-31.27,34.13c0,20.2,13.16,34.12,31.27,34.12C901.1,163.26,915,149.34,915,129.14Z"/><path class="cls-1" d="M1017.78,75V96.92a56.83,56.83,0,0,0-6.49-.38c-19.63,0-34.69,11-34.69,37v48H955.05V76.71H976.6V97.49c6.29-14.68,18.3-23.07,34.88-23.07A27.34,27.34,0,0,1,1017.78,75Z"/><path class="cls-1" d="M832.66,76.71l-69.4,152.51H740.19l27.65-61L726.47,76.71h23.07L779.28,145l30.31-68.25Z"/><polygon class="cls-2" points="800.75 212.18 793.01 229.18 978.14 229.18 978.14 212.18 800.75 212.18"/><polygon class="cls-2" points="723.45 212.18 29.04 212.18 29.04 229.18 715.75 229.18 723.45 212.18"/></svg>